<svg xmlns="http://www.w3.org/2000/svg" xmlns:xlink="http://www.w3.org/1999/xlink" version="1.1" id="Layer_1" x="0px" y="0px" width="100px" height="100px" viewBox="0 0 100 100" enable-background="new 0 0 100 100" xml:space="preserve" xmlns:xml="http://www.w3.org/XML/1998/namespace">
<path fill="#000000" d="M70.592,19.637v75.529l15.944-12.55V7.087L70.592,19.637z M78.635,23.577l3.512-2.666v5.908l-3.512,2.666  V23.577z M78.635,30.833l3.512-2.667v5.58l-3.512,2.667V30.833z M78.635,43.431l3.512-2.667v5.91l-3.512,2.667V43.431z   M74.225,26.922l3.514-2.667v5.909l-3.514,2.667V26.922z M74.225,34.177l3.514-2.666v5.581l-3.514,2.666V34.177z M74.225,46.776  l3.514-2.667v5.909l-3.514,2.666V46.776z M74.225,54.029l3.514-2.663v5.581l-3.514,2.667V54.029z M78.301,75.309l-3.514,2.668  v-5.582l3.514-2.666V75.309z M78.301,68.381l-3.514,2.667v-5.909l3.514-2.668V68.381z M78.635,50.688l3.512-2.667v5.583  l-3.512,2.666V50.688z M82.707,71.963l-3.512,2.667v-5.581l3.512-2.667V71.963z M82.707,65.035l-3.512,2.667v-5.91l3.512-2.665  V65.035z"/>
<polygon fill="#000000" points="85.122,4.818 85.145,4.8 85.04,4.818 28.303,4.818 12.388,17.344 12.358,17.35 12.381,17.35   12.358,17.368 12.463,17.35 69.2,17.35 85.116,4.823 85.145,4.818 "/>
<path fill="#000000" d="M12.358,19.658v75.334h28.46l19.67-15.662v15.662h7.324V19.658H12.358z M27.007,26.982h5.231v6.278h-5.231  V26.982z M27.007,34.306h5.231v5.231h-5.231V34.306z M27.007,46.862h5.231v5.232h-5.231V46.862z M20.729,26.982h5.231v6.278h-5.231  V26.982z M20.729,34.306h5.231v5.231h-5.231V34.306z M20.729,46.862h5.231v5.232h-5.231V46.862z M20.729,53.139h5.231v5.231h-5.231  V53.139z M25.96,79.298h-5.231V73.02h5.231V79.298z M25.96,71.975h-5.231v-5.229h5.231V71.975z M27.007,53.139h5.231v5.231h-5.231  V53.139z M32.238,79.298h-5.231V73.02h5.231V79.298z M32.238,71.975h-5.231v-5.229h5.231V71.975z M53.164,26.982h5.232v6.278h-5.232  V26.982z M53.164,34.306h5.232v5.231h-5.232V34.306z M53.164,46.862h5.232v5.232h-5.232V46.862z M53.164,53.139h5.232v5.231h-5.232  V53.139z M46.887,26.982h5.231v6.278h-5.231V26.982z M46.887,34.306h5.231v5.231h-5.231V34.306z M46.887,46.862h5.231v5.232h-5.231  V46.862z M46.887,53.139h5.231v5.231h-5.231V53.139z M40.609,92.898V66.742h19.879v10.42L40.609,92.898z"/>
</svg>