<svg xmlns="http://www.w3.org/2000/svg" xmlns:xlink="http://www.w3.org/1999/xlink" version="1.1" x="0px" y="0px" width="100px" height="100px" viewBox="0 0 100 100" enable-background="new 0 0 100 100" xml:space="preserve" xmlns:xml="http://www.w3.org/XML/1998/namespace">
<g id="Layer_1">
	<g>
		<polygon fill="#000000" points="15.88,75.262 14.006,73.346 35.661,52.171 35.661,48.256 44.486,39.434 44.486,27.077     47.965,21.933 47.965,3.223 50.645,3.223 50.645,22.754 47.166,27.898 47.166,40.544 38.341,49.367 38.341,53.298   "/>
	</g>
	<g>
		<polygon fill="#000000" points="42.998,72.05 40.318,72.05 40.318,49.8 47.16,41.588 54.041,41.588 65.068,28.841 75.484,28.841     75.484,31.521 66.293,31.521 55.266,44.268 48.415,44.268 42.998,50.77   "/>
	</g>
	<g>
		<polygon fill="#000000" points="59.14,90.004 53.313,84.698 53.313,71.493 45.221,64.634 45.221,49.942 49.225,46.247     59.487,46.247 62.526,43.208 64.421,45.103 60.597,48.927 50.271,48.927 47.9,51.115 47.9,63.392 55.993,70.251 55.993,83.515     60.944,88.023   "/>
	</g>
	<g>
		<polygon fill="#000000" points="28.026,51.507 26.194,49.551 41.21,35.488 41.21,7.773 43.89,7.773 43.89,36.65   "/>
	</g>
	<g>
		<path fill="#000000" d="M41.658,72.05c-2.357,0-4.272,1.915-4.272,4.276c0,2.359,1.915,4.271,4.272,4.271    c2.363,0,4.274-1.912,4.274-4.271C45.932,73.965,44.021,72.05,41.658,72.05z"/>
	</g>
	<g>
		<path fill="#000000" d="M29.038,75.541c-2.364,0-4.276,1.92-4.276,4.278c0,2.361,1.913,4.272,4.276,4.272    c2.359,0,4.271-1.911,4.271-4.272C33.31,77.461,31.397,75.541,29.038,75.541z"/>
	</g>
	<g>
		<circle fill="#000000" cx="29.038" cy="79.819" r="2.138"/>
	</g>
	<g>
		<path fill="#000000" d="M41.658,88.231c-2.357,0-4.272,1.91-4.272,4.27c0,2.361,1.915,4.276,4.272,4.276    c2.363,0,4.274-1.915,4.274-4.276C45.932,90.142,44.021,88.231,41.658,88.231z"/>
	</g>
	<g>
		<path fill="#000000" d="M41.658,90.366c-1.179,0-2.137,0.956-2.137,2.135c0,1.183,0.958,2.139,2.137,2.139    c1.185,0,2.139-0.956,2.139-2.139C43.797,91.322,42.843,90.366,41.658,90.366z"/>
	</g>
	<g>
		<path fill="#000000" d="M11.76,73.409c-2.366,0-4.276,1.912-4.276,4.271c0,2.361,1.911,4.276,4.276,4.276    c2.361,0,4.27-1.915,4.27-4.276C16.029,75.321,14.121,73.409,11.76,73.409z"/>
	</g>
	<g>
		<path fill="#000000" d="M11.76,75.541c-1.183,0-2.139,0.959-2.139,2.14c0,1.183,0.956,2.139,2.139,2.139    c1.174,0,2.135-0.956,2.135-2.139C13.895,76.5,12.934,75.541,11.76,75.541z"/>
	</g>
	<g>
		<path fill="#000000" d="M66.721,38.318c-2.358,0-4.27,1.913-4.27,4.276c0,2.359,1.911,4.271,4.27,4.271    c2.366,0,4.276-1.913,4.276-4.271C70.997,40.23,69.087,38.318,66.721,38.318z"/>
	</g>
	<g>
		<path fill="#000000" d="M66.721,40.455c-1.181,0-2.135,0.958-2.135,2.139c0,1.174,0.954,2.137,2.135,2.137    c1.183,0,2.14-0.963,2.14-2.137C68.86,41.414,67.903,40.455,66.721,40.455z"/>
	</g>
	<g>
		<path fill="#000000" d="M78.856,25.912c-2.363,0-4.275,1.911-4.275,4.27c0,2.366,1.912,4.278,4.275,4.278    c2.364,0,4.274-1.913,4.274-4.278C83.131,27.822,81.221,25.912,78.856,25.912z"/>
	</g>
	<g>
		<path fill="#000000" d="M78.856,28.046c-1.183,0-2.139,0.954-2.139,2.135c0,1.185,0.956,2.137,2.139,2.137    c1.179,0,2.135-0.952,2.135-2.137C80.991,29,80.035,28.046,78.856,28.046z"/>
	</g>
	<g>
		<path fill="#000000" d="M53.903,51.115c-2.366,0-4.276,1.918-4.276,4.274c0,2.361,1.91,4.276,4.276,4.276    c2.359,0,4.27-1.915,4.27-4.276C58.173,53.033,56.263,51.115,53.903,51.115z"/>
	</g>
	<g>
		<path fill="#000000" d="M53.903,53.252c-1.183,0-2.14,0.959-2.14,2.138c0,1.183,0.957,2.139,2.14,2.139    c1.177,0,2.133-0.956,2.133-2.139C56.036,54.211,55.08,53.252,53.903,53.252z"/>
	</g>
	<g>
		<polygon fill="#000000" points="65.648,56.729 58.173,56.729 58.173,54.05 64.486,54.05 92.584,24.031 94.541,25.862   "/>
	</g>
	<g>
		<path fill="#000000" d="M24.968,48.798c-2.363,0-4.278,1.913-4.278,4.272c0,2.358,1.915,4.276,4.278,4.276    c2.359,0,4.272-1.918,4.272-4.276C29.24,50.711,27.328,48.798,24.968,48.798z"/>
	</g>
	<g>
		<path fill="#000000" d="M62.11,87.126c-2.361,0-4.273,1.914-4.273,4.278c0,2.354,1.912,4.271,4.273,4.271    c2.363,0,4.274-1.917,4.274-4.271C66.385,89.04,64.474,87.126,62.11,87.126z"/>
	</g>
</g>
<g id="_x3C_Layer_x3E_">
</g>
<g id="toolbar">
</g>
</svg>