<svg xmlns="http://www.w3.org/2000/svg" xmlns:xlink="http://www.w3.org/1999/xlink" version="1.1" id="Layer_1" x="0px" y="0px" width="100px" height="100px" viewBox="0 0 100 100" enable-background="new 0 0 100 100" xml:space="preserve" xmlns:xml="http://www.w3.org/XML/1998/namespace">
<g>
	<path fill="#000000" d="M67.022,66.238c4.007-0.975,9.697-2.172,15.654-2.81c0.27-1.359,0.416-2.747,0.416-4.161   c0-0.529-0.022-1.056-0.061-1.578v-7.557C80.241,56.723,74.527,62.363,67.022,66.238z"/>
	<path fill="#000000" d="M43.141,69.965c22.065,0,39.952-12.994,39.952-29.023c0-16.029-17.887-29.022-39.952-29.022   c-22.065,0-39.952,12.994-39.952,29.022C3.188,56.971,21.076,69.965,43.141,69.965z M9.82,40.94c0-4.666,5.207-8.448,11.63-8.448   c6.423,0,11.63,3.783,11.63,8.448c0,4.666-5.207,8.449-11.63,8.449C15.026,49.389,9.82,45.606,9.82,40.94z M76.462,40.94   c0,4.666-5.209,8.449-11.632,8.449S53.2,45.606,53.2,40.94c0-4.666,5.207-8.448,11.63-8.448S76.462,36.275,76.462,40.94z    M31.509,56.698c0-4.665,5.208-8.449,11.629-8.449c6.424,0,11.631,3.784,11.631,8.449c0,4.667-5.208,8.448-11.631,8.448   C36.716,65.146,31.509,61.365,31.509,56.698z M40.176,40.941c0-1.189,1.328-2.153,2.965-2.153s2.965,0.964,2.965,2.153   c0,1.189-1.328,2.154-2.965,2.154S40.176,42.131,40.176,40.941z M54.77,25.186c0,4.666-5.208,8.449-11.631,8.449   c-6.422,0-11.629-3.783-11.629-8.449c0-4.667,5.208-8.449,11.629-8.449C49.562,16.736,54.77,20.519,54.77,25.186z"/>
	<path fill="#000000" d="M85.484,64.411c-10.738,0.977-24.245,4.428-30.171,6.047c-3.854,0.868-7.939,1.339-12.173,1.339   c-18.725,0-34.613-9.143-39.907-21.701v7.876c-0.026,0.43-0.045,0.861-0.045,1.295c0,16.03,17.887,29.023,39.952,29.023   c7.255,0,14.053-1.412,19.916-3.867c22.008-5.756,34.193-3.097,34.193-3.097V64.955C94.481,64.033,90.256,63.978,85.484,64.411z"/>
</g>
</svg>