<svg xmlns="http://www.w3.org/2000/svg" xmlns:xlink="http://www.w3.org/1999/xlink" version="1.1" id="Layer_1" x="0px" y="0px" width="100px" height="100px" viewBox="0 0 100 100" enable-background="new 0 0 100 100" xml:space="preserve" xmlns:xml="http://www.w3.org/XML/1998/namespace">
<rect fill="none" width="100" height="100"/>
<g>
	<path d="M94.063,29.561c0.11-0.701,0.16-1.402,0.11-2.099c-0.222-3.239-2.19-6.326-5.697-8.926   c-2.136-1.584-4.972-2.426-8.202-2.426c-4.472,0-9.477,1.643-13.056,4.293c-1.799,1.327-3.456,2.792-5.21,4.339   c-1.299,1.145-2.615,2.302-4.012,3.426c-9.55,0.013-23.236,0.374-29.821,4.559c-4.256,2.704-6.02,7.209-6.692,11.315   c-2.281,1.128-4.491,2.364-6.546,3.746c-5.664,3.812-8.944,8.034-9.748,12.548c-0.398,2.223-0.168,4.509,0.667,6.748   c-0.249,3.219,0.753,6.413,2.983,9.503c4.363,6.036,11.513,7.305,16.747,7.305c6.896,0,14.65-2.272,20.242-5.936   c10.09-6.607,15.028-10.913,22.25-17.393c3.31-2.966,6.823-5.563,10.229-8.071c4.119-3.041,8.379-6.189,12.232-9.968   C95.929,37.227,95.497,32.61,94.063,29.561z M30.527,36.426c4.225-2.688,12.909-3.513,20.653-3.766   c-0.531,0.265-1.066,0.531-1.626,0.78c-2.48,1.086-5.712,2.161-9.453,3.405c-4.177,1.381-8.889,2.962-13.543,4.895   C27.3,39.641,28.528,37.699,30.527,36.426z M7.347,60.721c0.699-3.907,3.665-7.645,8.816-11.113   c1.578-1.062,3.27-2.024,5.009-2.937c-0.189,2.825,0.052,5.143,0.185,6.11c-0.274,1.1-0.775,3.745-0.117,6.471   c0.245,1.004,1.14,1.68,2.129,1.676c0.171,0,0.347-0.021,0.519-0.063c1.177-0.281,1.9-1.468,1.612-2.646   c-0.17-0.7-0.204-1.422-0.188-2.086c3.212,1.323,8.933,3.161,16.038,3.161c2.839,0,5.896-0.295,9.099-1.033   c8.418-1.933,11.77-5.546,14.729-8.731c2.422-2.609,4.332-4.671,8.955-5.513c1.19-0.22,1.985-1.365,1.765-2.551   c-0.22-1.191-1.356-1.971-2.553-1.767c-6.052,1.107-8.763,4.023-11.38,6.84c-2.654,2.866-5.393,5.82-12.496,7.45   c-11.374,2.613-20.896-1.141-23.849-2.514c-0.141-1.456-0.274-4.202,0.238-7.047c5.071-2.223,10.337-3.978,14.931-5.504   c3.797-1.261,7.072-2.348,9.646-3.48c1.939-0.851,3.665-1.825,5.258-2.875c1.837-0.021,3.546-0.021,5.023-0.021   c1.767,0.004,3.256,0.008,4.369-0.025c1.212-0.029,2.168-1.037,2.133-2.248c-0.029-1.211-1.035-2.173-2.251-2.132   c-0.925,0.029-2.146,0.029-3.555,0.024c0.688-0.593,1.369-1.19,2.041-1.779c1.724-1.518,3.343-2.949,5.066-4.227   c3.226-2.381,7.728-3.858,11.754-3.858c2.756,0,5.139,0.689,6.896,1.991c2.072,1.539,4.594,4.061,4.817,7.317   c0.042,0.61-0.004,1.224-0.124,1.833c-0.004,0.017-0.017,0.025-0.022,0.037c-0.295,1.448-1.039,2.912-2.201,4.368   c-0.062,0.079-0.133,0.162-0.194,0.24c-0.384,0.457-0.79,0.913-1.253,1.369c-3.741,3.671-7.744,6.628-11.987,9.756   c-3.447,2.547-7.008,5.177-10.399,8.217c-7.159,6.417-12.054,10.681-21.994,17.193c-5.25,3.438-12.546,5.574-19.035,5.574   c-4.723,0-11.153-1.111-14.972-6.396c-0.36-0.498-0.676-1.008-0.963-1.519c-0.046-0.079-0.086-0.153-0.127-0.228   c-0.279-0.515-0.528-1.037-0.733-1.556c-0.008-0.021-0.021-0.038-0.034-0.059C7.21,64.536,7.004,62.62,7.347,60.721z    M89.003,40.956c-3.743,3.675-7.754,6.637-11.998,9.772c-3.442,2.539-7.003,5.165-10.391,8.201   c-7.146,6.412-12.03,10.668-21.988,17.193c-5.255,3.438-12.55,5.574-19.039,5.574c-4.721,0-11.15-1.107-14.97-6.392   c-0.765-1.062-1.365-2.132-1.793-3.202c0.171,0.199,0.364,0.356,0.54,0.543c0.27,0.286,0.539,0.564,0.822,0.826   c0.338,0.311,0.688,0.597,1.045,0.87c0.293,0.232,0.584,0.457,0.894,0.664c0.367,0.245,0.748,0.465,1.129,0.681   c0.313,0.178,0.622,0.356,0.944,0.51c0.393,0.191,0.791,0.353,1.193,0.515c0.321,0.128,0.638,0.266,0.959,0.373   c0.416,0.146,0.834,0.257,1.25,0.373c0.312,0.088,0.621,0.183,0.934,0.253c0.441,0.104,0.873,0.175,1.31,0.254   c0.287,0.045,0.574,0.111,0.857,0.148c0.483,0.071,0.95,0.108,1.421,0.154c0.221,0.012,0.455,0.045,0.672,0.062   c0.685,0.042,1.348,0.063,1.981,0.063l0,0c5.172,0,10.828-1.277,15.688-3.459c1.624-0.73,3.15-1.56,4.55-2.473   c10.076-6.6,15.02-10.909,22.256-17.393c3.313-2.974,6.831-5.57,10.236-8.084c4.115-3.041,8.371-6.181,12.225-9.963   c0.607-0.593,1.13-1.195,1.617-1.8c0.063-0.075,0.125-0.149,0.181-0.228c0.483-0.618,0.898-1.24,1.249-1.871   c0.006-0.004,0.01-0.008,0.01-0.013C92.971,35.671,91.708,38.296,89.003,40.956z"/>
</g>
</svg>