<svg xmlns="http://www.w3.org/2000/svg" xmlns:xlink="http://www.w3.org/1999/xlink" version="1.1" x="0px" y="0px" width="100px" height="100px" viewBox="0 0 100 100" enable-background="new 0 0 100 100" xml:space="preserve" xmlns:xml="http://www.w3.org/XML/1998/namespace">
<g id="Captions">
	<rect x="-192" width="185" height="99"/>
	<rect y="-36" width="100" height="30"/>
	<text transform="matrix(1 0 0 1 66 -19.5)" fill="#000000" font-family="'Helvetica'" font-size="2.4">http://thenounproject.com</text>
	<text transform="matrix(1 0 0 1 7.166 -24.5)"><tspan x="0" y="0" fill="#000000" font-family="'Helvetica-Bold'" font-size="6.1578">The Noun Project</tspan><tspan x="1.12" y="4.8" fill="#000000" font-family="'Helvetica-Bold'" font-size="4">Icon Template</tspan></text>
	<text transform="matrix(1 0 0 1 -178.5 10.5)" fill="#000000" font-family="'Helvetica-Bold'" font-size="6.1578">Reminders</text>
	<line fill="#000000" stroke="#FFFFFF" stroke-miterlimit="10" x1="8" y1="-14.5" x2="18" y2="-14.5"/>
	<line fill="#000000" stroke="#FFFFFF" stroke-miterlimit="10" x1="-179" y1="16.5" x2="-162" y2="16.5"/>
	<g>
		<g>
			<g>
				<rect x="-170.802" y="31.318" fill="#000000" width="8.721" height="8.642"/>
				<path fill="#000000" d="M-164.455,42.312h4.747v-4.703h-4.747V42.312z M-159.266,42.749h-5.63V37.17h5.63V42.749      L-159.266,42.749z M-166.221,44.062h8.279v-8.203h-8.279V44.062L-166.221,44.062z M-157.5,44.5h-9.163v-9.079h9.163V44.5      L-157.5,44.5z"/>
				<polygon fill="#000000" points="-166.149,44.133 -166.292,43.991 -158.013,35.787 -157.871,35.929     "/>
			</g>
		</g>
	</g>
	<rect x="-179" y="58" fill="none" width="35" height="32.5"/>
	<text transform="matrix(1 0 0 1 -179 60.1299)"><tspan x="0" y="0" fill="#000000" font-family="'Helvetica-Bold'" font-size="3">Strokes</tspan><tspan x="0" y="5" fill="#000000" font-family="'Helvetica'" font-size="2.4">Try to keep strokes at 4px</tspan><tspan x="0" y="10" fill="#000000" font-family="'Helvetica'" font-size="2.4">Minimum stroke weight is 2px</tspan><tspan x="0" y="14.5" fill="#000000" font-family="'Helvetica'" font-size="2.4">For thicker strokes use even </tspan><tspan x="0" y="17.5" fill="#000000" font-family="'Helvetica'" font-size="2.4">numbers: 6px, 8px etc.</tspan><tspan x="0" y="22" fill="#000000" font-family="'Helvetica-Bold'" font-size="2.4">Remember to expand strokes </tspan><tspan x="0" y="25" fill="#000000" font-family="'Helvetica-Bold'" font-size="2.4">before saving as an SVG </tspan></text>
	<rect x="-136.5" y="58" fill="none" width="35" height="32.5"/>
	<text transform="matrix(1 0 0 1 -136.5 60.1299)"><tspan x="0" y="0" fill="#000000" font-family="'Helvetica-Bold'" font-size="3">Size</tspan><tspan x="0" y="5" fill="#000000" font-family="'Helvetica'" font-size="2.4">Cannot be wider or taller than </tspan><tspan x="0" y="8.5" fill="#000000" font-family="'Helvetica'" font-size="2.4">100px (artboard size)</tspan><tspan x="0" y="13.5" fill="#000000" font-family="'Helvetica'" font-size="2.4">Scale your icon to fill as much of </tspan><tspan x="0" y="16.5" fill="#000000" font-family="'Helvetica'" font-size="2.4">the artboard as possible</tspan></text>
	<rect x="-94" y="58" fill="none" width="35" height="32.5"/>
	<text transform="matrix(1 0 0 1 -94 60.1299)"><tspan x="0" y="0" fill="#000000" font-family="'Helvetica-Bold'" font-size="3">Ungroup</tspan><tspan x="0" y="5" fill="#000000" font-family="'Helvetica'" font-size="2.4">If your design has more than one </tspan><tspan x="0" y="8" fill="#000000" font-family="'Helvetica'" font-size="2.4">shape, make sure to ungroup</tspan></text>
	<rect x="-50" y="58" fill="none" width="35" height="32.5"/>
	<text transform="matrix(1 0 0 1 -50 60.1299)"><tspan x="0" y="0" fill="#000000" font-family="'Helvetica-Bold'" font-size="3">Save as</tspan><tspan x="0" y="5" fill="#000000" font-family="'Helvetica'" font-size="2.4">Save as .SVG and make sure “Use </tspan><tspan x="0" y="8" fill="#000000" font-family="'Helvetica'" font-size="2.4">Artboards” is checked</tspan></text>
	<text transform="matrix(1.0074 0 0 1 -125.542 30.5933)" fill="#000000" font-family="'Helvetica'" font-size="2.5731">100px</text>
	<text transform="matrix(1.0074 0 0 1 -41 39)" fill="#000000" font-family="'Helvetica-Bold'" font-size="5.1462">.SVG</text>
	<rect x="-126.514" y="34.815" fill="#000000" width="10.261" height="10.185"/>
	<rect x="-126.477" y="31.766" fill="#000000" width="0.522" height="2.337"/>
	<rect x="-116.813" y="31.766" fill="#000000" width="0.523" height="2.337"/>
	<rect x="-127" y="32.337" fill="#000000" width="11.233" height="0.572"/>
	<g>
		<rect x="-83.805" y="33.844" fill="#000000" width="10.305" height="10.156"/>
		<rect x="-76.809" y="28.707" fill="#000000" width="3.308" height="3.261"/>
	</g>
	<rect x="-178.5" y="22.5" fill="#000000" stroke="#FFFFFF" stroke-miterlimit="10" width="30" height="30"/>
	<rect x="-136.5" y="22.5" fill="#000000" stroke="#FFFFFF" stroke-miterlimit="10" width="30" height="30"/>
	<rect x="-93.5" y="22.5" fill="#000000" stroke="#FFFFFF" stroke-miterlimit="10" width="30" height="30"/>
	<rect x="-49.5" y="22.5" fill="#000000" stroke="#FFFFFF" stroke-miterlimit="10" width="30" height="30"/>
</g>
<g id="Your_Icon">
	<g>
		<path d="M82.38,39.033l-0.633-0.664l-0.338,0.855c-0.019,0.052-2.054,5.216-3.167,6.664c-1.405,1.829-3.51,3.444-6.087,4.666    l-0.456,0.217l0.145,0.48c1.176,3.94,1.734,8.227,1.661,12.737l-0.019,1.117l0.932-0.621c1.188-0.791,3.372-2.444,3.873-2.885    c1.627-1.437,2.961-2.996,3.966-4.637c2.453-4.017,3.742-9.512,3.364-14.299C85.621,42.429,85.621,42.429,82.38,39.033z     M81.256,56.35c-0.943,1.542-2.201,3.011-3.74,4.368c-0.365,0.321-1.718,1.353-2.832,2.152c-0.028-4.036-0.558-7.89-1.578-11.478    c2.543-1.275,4.633-2.924,6.067-4.791c0.931-1.21,2.341-4.524,2.986-6.101c0.735,0.769,1.902,1.991,2.307,2.414    C84.774,47.464,83.553,52.59,81.256,56.35z"/>
		<path d="M66.367,43.209l-0.176-0.205H34.403h-0.865h-1.004h-0.409h-8.909l-0.176,0.202c-1.289,1.482-2.294,2.941-2.985,4.337    c-2.92,5.891-3.379,12.705-3.275,17.793c-7.534-0.933-13.389-7.36-13.389-15.143c0-8.418,6.852-15.268,15.27-15.268    c3.688,0,7.075,1.314,9.716,3.499c-1.145,0.832-2.254,1.731-3.299,2.717l-1,0.942h7.497h0.435h1.055h0.892h31.374l-0.99-0.941    c-4.316-4.097-11.754-8.482-19.755-8.507c-4.74,0-9.854,1.677-14.462,4.605c-3.058-2.709-7.065-4.368-11.461-4.368    c-9.551,0-17.322,7.771-17.322,17.321c0,8.939,6.807,16.318,15.51,17.228c0.063,1.281,0.15,2.406,0.22,3.282    c0.061,0.759,0.106,1.331,0.106,1.668c0,0.856,0.69,1.828,8.921,2.535c4.882,0.421,11.452,0.652,18.498,0.652    c10.239,0,27.42-0.414,27.42-3.188c0-0.404,0.05-1.05,0.112-1.888c0.326-4.416,1.092-14.754-2.951-23.095    C68.514,46.024,67.569,44.618,66.367,43.209z M29.526,38.95c0.255-0.178,0.513-0.349,0.77-0.52    c0.221-0.145,0.447-0.271,0.671-0.411c4.371-2.723,9.182-4.294,13.68-4.294c7.015,0.022,13.643,3.614,17.898,7.268H33.311h-0.908    h-1.119h-0.466h-3.95c0.754-0.651,1.541-1.243,2.342-1.812C29.316,39.105,29.42,39.024,29.526,38.95z M70.957,70.396    c-0.066,0.875-0.116,1.553-0.087,1.864c-0.771,1.046-10.812,2.125-26.275,2.125c-15.462,0-25.501-1.079-26.246-2.014    c0-0.355-0.046-0.962-0.11-1.763c-0.067-0.836-0.149-1.906-0.211-3.125c-0.008-0.168-0.018-0.332-0.027-0.507    c-0.013-0.297-0.024-0.598-0.035-0.906c-0.006-0.204-0.005-0.432-0.01-0.643c-0.109-4.974,0.32-11.651,3.151-17.364    c0.617-1.244,1.507-2.551,2.646-3.887h8.939h0.405h0.961h0.829h30.762c1.055,1.263,1.889,2.515,2.474,3.723    C72.025,55.958,71.276,66.076,70.957,70.396z"/>
		<path d="M46.976,31.861c-0.196-1.924-0.78-3.901-2.381-3.901c-1.6,0-2.187,1.972-2.381,3.893c0.887-0.095,1.77-0.157,2.636-0.142    C45.566,31.723,46.272,31.78,46.976,31.861z"/>
		<path d="M95.637,28.825c-0.564,1.101-1.697,1.71-2.858,1.67c1.268,0.323,2.635-0.252,3.259-1.466    c0.619-1.213,0.293-2.661-0.711-3.503C96.038,26.445,96.204,27.723,95.637,28.825z"/>
		<path d="M98.461,22.349c-1.002-1.817-3.104-2.632-5.02-2.086c1.765-0.112,3.515,0.763,4.424,2.413    c0.904,1.649,0.71,3.599-0.327,5.028C99.024,26.379,99.459,24.166,98.461,22.349z"/>
		<path d="M98.157,20.849c0.502-2.281-0.605-4.687-2.807-5.727c-2.199-1.038-4.762-0.366-6.207,1.471    c1.6-1.318,3.87-1.69,5.865-0.749C97.006,16.789,98.157,18.775,98.157,20.849z"/>
		<path d="M86.703,18.046c1.697-0.815,3.633-0.512,5.003,0.601c-1.243-1.557-3.428-2.113-5.296-1.214    c-1.869,0.905-2.796,2.961-2.353,4.901C84.039,20.567,85.006,18.866,86.703,18.046z"/>
		<path d="M86.654,28.602c-1.388-0.637-2.364-2.02-2.382-3.648c-0.018-1.629,0.93-3.031,2.304-3.696    c-1.673,0.402-2.909,1.909-2.889,3.703C83.703,26.753,84.973,28.234,86.654,28.602z"/>
		<path d="M89.313,21.784c-1.087,0.452-1.68,1.592-1.484,2.708c0.043-1.005,0.647-1.941,1.637-2.352    c0.984-0.412,2.077-0.18,2.821,0.496C91.629,21.711,90.403,21.329,89.313,21.784z"/>
		
			<rect x="88.451" y="29.691" transform="matrix(-0.7797 -0.6261 0.6261 -0.7797 135.6736 117.6571)" width="0.165" height="10.542"/>
		<rect x="87.317" y="27.452" transform="matrix(0.8865 0.4627 -0.4627 0.8865 25.3654 -36.6502)" width="0.176" height="11.875"/>
		<rect x="85.084" y="29.782" transform="matrix(-0.9567 -0.2909 0.2909 -0.9567 156.7505 91.4095)" width="0.175" height="8.54"/>
	</g>
</g>
</svg>