<svg xmlns="http://www.w3.org/2000/svg" xmlns:xlink="http://www.w3.org/1999/xlink" version="1.1" id="Layer_1" x="0px" y="0px" width="100px" height="66.573px" viewBox="0 0 100 66.573" enable-background="new 0 0 100 66.573" xml:space="preserve" xmlns:xml="http://www.w3.org/XML/1998/namespace">
<path d="M33.761,35.921c3.735,0,7.703-1.2,7.703-3.425v-4.198c0-0.139-0.015-0.274-0.046-0.405  c-0.059-0.262-0.177-0.508-0.345-0.737c-0.084-0.115-0.18-0.225-0.287-0.332c-0.078-0.076-0.16-0.149-0.249-0.222  c-0.034-0.027-0.071-0.053-0.106-0.08c-0.057-0.043-0.112-0.086-0.173-0.126c-0.048-0.034-0.1-0.065-0.151-0.097  c-0.051-0.032-0.102-0.064-0.155-0.096c-0.062-0.036-0.125-0.07-0.188-0.104c-0.047-0.024-0.093-0.049-0.141-0.074  c-0.074-0.037-0.149-0.072-0.226-0.107c-0.041-0.019-0.081-0.037-0.123-0.055c-0.086-0.038-0.174-0.075-0.264-0.11  c-0.033-0.013-0.066-0.025-0.1-0.039c-0.1-0.038-0.201-0.075-0.304-0.111c-0.023-0.008-0.047-0.015-0.07-0.023  c-0.115-0.038-0.23-0.075-0.35-0.111c-0.731-0.218-1.539-0.377-2.377-0.477c-0.336-0.04-0.677-0.07-1.02-0.09  c-0.001,0-0.001,0-0.002,0c-0.342-0.021-0.686-0.031-1.027-0.031h-0.001c-3.267,0-6.714,0.919-7.525,2.64  c-0.115,0.246-0.177,0.508-0.177,0.786v0.403v1.396v2.399C26.059,34.721,30.028,35.921,33.761,35.921z M40.158,32.496  c0,0.864-2.49,2.119-6.395,2.119v-2.892c2.415,0,4.921-0.505,6.395-1.462V32.496z M27.393,28.132  c0.017-0.05,0.043-0.102,0.075-0.154c0.012-0.018,0.027-0.036,0.04-0.054c0.024-0.034,0.049-0.068,0.08-0.103  c0.019-0.022,0.043-0.045,0.064-0.067c0.03-0.03,0.061-0.06,0.095-0.09c0.029-0.025,0.06-0.05,0.093-0.076  c0.033-0.027,0.068-0.054,0.105-0.081c0.039-0.028,0.08-0.056,0.124-0.083c0.035-0.023,0.072-0.046,0.109-0.069  c0.051-0.031,0.103-0.062,0.159-0.091c0.033-0.019,0.069-0.037,0.104-0.055c0.066-0.034,0.131-0.067,0.203-0.1  c0.024-0.012,0.051-0.023,0.077-0.034c0.707-0.318,1.671-0.592,2.843-0.75c0.004-0.001,0.008-0.001,0.012-0.001  c0.168-0.023,0.34-0.043,0.517-0.06c0.007-0.001,0.014-0.001,0.021-0.002c0.177-0.018,0.358-0.032,0.543-0.044  c0.001,0,0.001,0,0.002,0c0.355-0.023,0.722-0.037,1.105-0.037c0.403,0,0.791,0.013,1.164,0.039  c0.623,0.042,1.196,0.117,1.722,0.215c0.036,0.007,0.073,0.014,0.109,0.021c0.416,0.081,0.798,0.177,1.146,0.284  c0.035,0.011,0.07,0.022,0.104,0.033c0.168,0.054,0.33,0.11,0.48,0.168c0.003,0,0.005,0.001,0.006,0.002  c0.146,0.057,0.28,0.116,0.408,0.176c0.031,0.015,0.062,0.03,0.093,0.045c0.124,0.061,0.242,0.123,0.347,0.186  c0.003,0.002,0.006,0.004,0.01,0.006c0.102,0.061,0.192,0.123,0.274,0.186c0.022,0.017,0.043,0.033,0.065,0.05  c0.08,0.064,0.154,0.128,0.214,0.192c0.168,0.179,0.256,0.354,0.256,0.517c0,0.864-2.491,2.119-6.396,2.119  c-0.289,0-0.567-0.009-0.839-0.022c-0.082-0.004-0.161-0.01-0.241-0.015c-0.195-0.012-0.387-0.027-0.573-0.045  c-0.078-0.008-0.154-0.015-0.229-0.023c-0.219-0.024-0.432-0.053-0.637-0.086c-0.028-0.004-0.057-0.007-0.083-0.012  c-0.241-0.04-0.471-0.084-0.692-0.133c-0.032-0.007-0.062-0.015-0.094-0.022c-0.189-0.044-0.371-0.091-0.543-0.14  c-0.034-0.01-0.068-0.02-0.102-0.03c-0.926-0.274-1.606-0.622-1.992-0.968c-0.015-0.014-0.029-0.027-0.043-0.04  c-0.034-0.033-0.068-0.066-0.098-0.099c-0.039-0.043-0.074-0.087-0.103-0.129c-0.014-0.019-0.022-0.038-0.033-0.057  c-0.02-0.035-0.038-0.069-0.051-0.104c-0.006-0.017-0.013-0.033-0.018-0.049c-0.014-0.049-0.025-0.099-0.025-0.146  C27.364,28.244,27.375,28.188,27.393,28.132z"/>
<path d="M50.157,29.743c3.734,0,7.703-1.201,7.703-3.425v-4.198c0-0.139-0.016-0.274-0.046-0.405  c-0.06-0.262-0.178-0.507-0.346-0.737c-0.084-0.115-0.181-0.225-0.287-0.332c-0.077-0.076-0.16-0.149-0.248-0.221  c-0.034-0.027-0.071-0.053-0.106-0.08c-0.057-0.043-0.112-0.086-0.173-0.127c-0.049-0.033-0.1-0.065-0.151-0.097  c-0.05-0.032-0.102-0.064-0.154-0.096c-0.062-0.036-0.124-0.07-0.188-0.104c-0.047-0.025-0.093-0.05-0.14-0.074  c-0.074-0.037-0.149-0.073-0.227-0.107c-0.04-0.019-0.081-0.038-0.122-0.056c-0.086-0.038-0.175-0.075-0.264-0.11  c-0.033-0.013-0.066-0.025-0.1-0.039c-0.1-0.038-0.201-0.075-0.305-0.11c-0.023-0.008-0.046-0.016-0.069-0.023  c-0.115-0.039-0.23-0.076-0.351-0.111c-0.731-0.218-1.539-0.377-2.377-0.476c-0.336-0.04-0.677-0.07-1.02-0.09  c-0.001,0-0.001,0-0.002,0c-0.341-0.02-0.685-0.03-1.027-0.03h-0.001c-3.267,0-6.713,0.919-7.524,2.64  c-0.115,0.246-0.177,0.508-0.177,0.786v0.403v1.396v2.399C42.456,28.542,46.424,29.743,50.157,29.743z M56.554,26.317  c0,0.864-2.49,2.119-6.395,2.119v-2.892c2.415,0,4.921-0.505,6.395-1.462V26.317z M43.79,21.953c0.017-0.05,0.043-0.102,0.075-0.154  c0.012-0.018,0.027-0.036,0.04-0.054c0.024-0.034,0.049-0.068,0.079-0.103c0.019-0.022,0.043-0.045,0.065-0.068  c0.03-0.03,0.06-0.06,0.094-0.09c0.029-0.025,0.061-0.05,0.093-0.076c0.033-0.027,0.068-0.053,0.105-0.081  c0.039-0.028,0.08-0.056,0.123-0.083c0.035-0.023,0.072-0.046,0.11-0.069c0.05-0.03,0.103-0.061,0.158-0.091  c0.033-0.019,0.069-0.036,0.104-0.055c0.066-0.034,0.131-0.067,0.203-0.1c0.024-0.012,0.051-0.023,0.076-0.034  c0.707-0.318,1.67-0.592,2.842-0.75c0.003-0.001,0.008-0.001,0.012-0.002c0.168-0.022,0.34-0.043,0.516-0.06  c0.007,0,0.014-0.001,0.021-0.002c0.177-0.018,0.358-0.033,0.543-0.044c0,0,0,0,0.001,0C49.407,20.015,49.774,20,50.157,20  c0.403,0,0.791,0.014,1.163,0.039c0.623,0.042,1.196,0.117,1.722,0.215c0.036,0.006,0.073,0.013,0.109,0.021  c0.415,0.081,0.798,0.177,1.145,0.284c0.035,0.011,0.07,0.022,0.104,0.033c0.169,0.054,0.33,0.11,0.48,0.168  c0.003,0.001,0.005,0.002,0.007,0.003c0.146,0.057,0.279,0.116,0.407,0.176c0.03,0.015,0.062,0.03,0.093,0.044  c0.124,0.061,0.242,0.123,0.348,0.186c0.003,0.002,0.006,0.004,0.01,0.006c0.102,0.062,0.191,0.124,0.274,0.186  c0.022,0.017,0.043,0.033,0.064,0.049c0.08,0.064,0.153,0.129,0.214,0.192c0.168,0.179,0.256,0.354,0.256,0.517  c0,0.864-2.491,2.119-6.396,2.119c-0.289,0-0.567-0.009-0.84-0.022c-0.082-0.003-0.161-0.009-0.241-0.014  c-0.195-0.012-0.387-0.028-0.573-0.046c-0.078-0.007-0.154-0.015-0.229-0.023c-0.219-0.025-0.432-0.054-0.637-0.086  c-0.028-0.005-0.057-0.008-0.084-0.012c-0.241-0.04-0.47-0.084-0.692-0.134c-0.032-0.007-0.062-0.015-0.093-0.022  c-0.19-0.043-0.37-0.09-0.542-0.14c-0.034-0.01-0.068-0.02-0.102-0.029c-0.926-0.274-1.606-0.622-1.992-0.968  c-0.015-0.014-0.03-0.026-0.043-0.04c-0.034-0.033-0.068-0.065-0.098-0.099c-0.039-0.043-0.074-0.087-0.103-0.129  c-0.014-0.019-0.022-0.038-0.033-0.056c-0.02-0.035-0.038-0.07-0.051-0.104c-0.006-0.016-0.013-0.032-0.018-0.048  c-0.015-0.05-0.025-0.099-0.025-0.146C43.761,22.065,43.771,22.01,43.79,21.953z"/>
<path d="M66.554,23.564c3.734,0,7.703-1.201,7.703-3.425V15.94c0-0.139-0.016-0.274-0.046-0.405  c-0.06-0.262-0.178-0.507-0.346-0.737c-0.084-0.115-0.18-0.225-0.287-0.332c-0.077-0.076-0.16-0.149-0.248-0.221  c-0.034-0.027-0.071-0.053-0.106-0.08c-0.057-0.043-0.112-0.086-0.173-0.127c-0.049-0.033-0.1-0.064-0.151-0.097  c-0.05-0.032-0.102-0.064-0.154-0.096c-0.062-0.036-0.124-0.07-0.188-0.104c-0.047-0.025-0.093-0.049-0.14-0.074  c-0.074-0.037-0.149-0.072-0.227-0.107c-0.04-0.019-0.081-0.038-0.122-0.055c-0.086-0.038-0.175-0.075-0.264-0.11  c-0.033-0.013-0.066-0.026-0.1-0.039c-0.1-0.038-0.201-0.075-0.304-0.111c-0.023-0.008-0.047-0.015-0.07-0.023  c-0.115-0.038-0.23-0.076-0.351-0.111c-0.731-0.218-1.539-0.377-2.377-0.477c-0.336-0.04-0.677-0.07-1.02-0.09  c-0.001,0-0.001,0-0.002,0c-0.342-0.021-0.686-0.031-1.027-0.031h-0.001c-3.267,0-6.715,0.919-7.525,2.64  c-0.115,0.246-0.177,0.508-0.177,0.786v0.404v1.396v2.399C58.852,22.363,62.819,23.564,66.554,23.564z M72.95,20.139  c0,0.864-2.49,2.119-6.395,2.119v-2.892c2.414,0,4.921-0.505,6.395-1.462V20.139z M60.186,15.774  c0.017-0.05,0.043-0.102,0.074-0.153c0.012-0.018,0.027-0.036,0.04-0.054c0.024-0.034,0.049-0.068,0.079-0.103  c0.019-0.022,0.043-0.045,0.064-0.067c0.03-0.03,0.061-0.061,0.095-0.09c0.029-0.025,0.061-0.051,0.093-0.076  c0.033-0.027,0.068-0.054,0.105-0.081c0.038-0.028,0.08-0.056,0.123-0.083c0.035-0.023,0.072-0.046,0.109-0.069  c0.051-0.031,0.103-0.062,0.159-0.091c0.033-0.019,0.068-0.037,0.104-0.055c0.066-0.034,0.132-0.067,0.203-0.1  c0.024-0.012,0.051-0.023,0.076-0.034c0.707-0.318,1.671-0.592,2.843-0.75c0.004-0.001,0.009-0.001,0.012-0.002  c0.169-0.022,0.34-0.042,0.517-0.06c0.007-0.001,0.014-0.001,0.021-0.002c0.178-0.018,0.358-0.032,0.544-0.044  c0.001,0,0.001,0,0.002,0c0.354-0.023,0.722-0.038,1.105-0.038c0.402,0,0.791,0.014,1.163,0.039  c0.622,0.042,1.196,0.117,1.722,0.215c0.036,0.007,0.073,0.014,0.109,0.021c0.415,0.081,0.798,0.177,1.145,0.284  c0.035,0.011,0.07,0.022,0.104,0.033c0.169,0.054,0.33,0.11,0.48,0.168c0.003,0,0.005,0.001,0.007,0.002  c0.146,0.057,0.279,0.116,0.407,0.176c0.03,0.015,0.062,0.03,0.093,0.044c0.124,0.062,0.242,0.124,0.348,0.187  c0.003,0.002,0.006,0.004,0.01,0.006c0.102,0.061,0.191,0.123,0.274,0.186c0.022,0.017,0.043,0.033,0.064,0.05  c0.08,0.064,0.154,0.128,0.214,0.192c0.169,0.179,0.256,0.354,0.256,0.516c0,0.864-2.491,2.12-6.396,2.12  c-0.289,0-0.567-0.009-0.84-0.022c-0.082-0.003-0.161-0.009-0.241-0.014c-0.195-0.012-0.387-0.027-0.573-0.045  c-0.077-0.008-0.153-0.015-0.229-0.023c-0.218-0.025-0.432-0.054-0.637-0.086c-0.027-0.004-0.057-0.008-0.084-0.012  c-0.24-0.04-0.47-0.084-0.691-0.134c-0.032-0.006-0.062-0.015-0.094-0.022c-0.189-0.043-0.37-0.09-0.543-0.139  c-0.034-0.01-0.068-0.02-0.102-0.03c-0.926-0.274-1.606-0.622-1.992-0.968c-0.016-0.013-0.029-0.026-0.043-0.04  c-0.034-0.033-0.068-0.065-0.099-0.098c-0.038-0.043-0.073-0.087-0.103-0.13c-0.014-0.019-0.022-0.038-0.033-0.056  c-0.02-0.035-0.037-0.07-0.051-0.104c-0.007-0.016-0.013-0.032-0.019-0.048c-0.014-0.049-0.024-0.099-0.024-0.146  C60.157,15.887,60.167,15.832,60.186,15.774z"/>
<path d="M100,14.358c0-0.003-0.001-0.006-0.001-0.008c-0.001-0.058-0.01-0.115-0.026-0.17c-0.005-0.02-0.014-0.039-0.021-0.057  c-0.015-0.038-0.03-0.073-0.052-0.107c-0.012-0.018-0.022-0.036-0.036-0.053c-0.024-0.032-0.053-0.062-0.083-0.089  c-0.015-0.013-0.027-0.027-0.043-0.039c-0.007-0.005-0.012-0.012-0.02-0.017c-0.042-0.029-0.088-0.053-0.135-0.071  c-0.001,0-0.002-0.001-0.003-0.001l-0.001-0.001c0,0-0.001,0-0.003-0.001l-8.923-3.416V9.762c0-0.139-0.016-0.274-0.046-0.405  c-0.06-0.262-0.178-0.507-0.346-0.737c-0.084-0.115-0.18-0.225-0.287-0.332c-0.077-0.076-0.16-0.149-0.248-0.221  c-0.034-0.028-0.071-0.053-0.106-0.08c-0.057-0.043-0.112-0.086-0.173-0.126c-0.049-0.034-0.1-0.065-0.151-0.097  c-0.05-0.033-0.102-0.064-0.154-0.096c-0.062-0.035-0.124-0.069-0.188-0.104c-0.046-0.025-0.092-0.05-0.14-0.074  c-0.074-0.037-0.149-0.072-0.227-0.107c-0.04-0.019-0.08-0.037-0.122-0.055c-0.086-0.038-0.175-0.075-0.264-0.11  c-0.033-0.013-0.066-0.025-0.1-0.039c-0.1-0.038-0.2-0.075-0.304-0.111c-0.023-0.008-0.047-0.015-0.07-0.023  c-0.115-0.039-0.23-0.076-0.351-0.111C86.646,6.716,85.838,6.556,85,6.457c-0.336-0.04-0.677-0.07-1.02-0.09  c-0.001,0-0.001,0-0.002,0c-0.342-0.02-0.686-0.031-1.027-0.031H82.95c-0.776,0-1.562,0.054-2.32,0.156l-6.531-2.5V3.425  c0-0.139-0.015-0.274-0.045-0.405c-0.06-0.262-0.178-0.507-0.345-0.737c-0.084-0.115-0.181-0.225-0.288-0.332  c-0.077-0.076-0.16-0.149-0.248-0.221c-0.034-0.027-0.071-0.053-0.106-0.08c-0.057-0.043-0.112-0.086-0.173-0.127  c-0.049-0.033-0.1-0.065-0.15-0.097c-0.051-0.033-0.102-0.064-0.155-0.096c-0.061-0.035-0.124-0.069-0.188-0.104  c-0.046-0.025-0.093-0.05-0.141-0.074c-0.072-0.037-0.148-0.073-0.225-0.108c-0.04-0.019-0.082-0.037-0.123-0.055  c-0.087-0.038-0.174-0.075-0.264-0.11c-0.033-0.013-0.066-0.025-0.1-0.039c-0.101-0.038-0.201-0.075-0.305-0.11  c-0.023-0.008-0.047-0.016-0.07-0.023c-0.114-0.039-0.229-0.076-0.349-0.111c-0.732-0.218-1.54-0.377-2.377-0.477  c-0.337-0.04-0.679-0.07-1.021-0.09c-0.001,0-0.001,0-0.001,0C67.082,0.01,66.739,0,66.396,0h-0.001  c-3.267,0-6.714,0.919-7.524,2.64c-0.115,0.245-0.177,0.508-0.177,0.786v0.403l-6.579,2.479c0.056,0.006,0.11,0.016,0.165,0.023  c-0.076-0.01-0.152-0.022-0.229-0.031c-0.337-0.04-0.679-0.07-1.021-0.09c0,0,0,0,0,0C50.686,6.188,50.342,6.178,50,6.178H50  c-3.267,0-6.713,0.919-7.524,2.64c-0.115,0.246-0.177,0.508-0.177,0.786v0.403l-6.579,2.479c0.019,0.002,0.038,0.006,0.058,0.008  c-0.041-0.005-0.081-0.012-0.122-0.017c-0.337-0.04-0.678-0.07-1.021-0.09c-0.001,0-0.001,0-0.001,0  c-0.343-0.02-0.687-0.03-1.028-0.03h-0.001c-3.267,0-6.714,0.919-7.525,2.64c-0.115,0.246-0.178,0.508-0.178,0.786v0.403  l-6.579,2.479c0.047,0.006,0.094,0.014,0.141,0.02c-0.068-0.009-0.136-0.02-0.205-0.028c-0.337-0.04-0.678-0.07-1.021-0.09  c-0.001,0-0.001,0-0.001,0c-0.343-0.02-0.687-0.031-1.028-0.031h-0.001c-3.267,0-6.714,0.919-7.524,2.64  c-0.116,0.246-0.178,0.508-0.178,0.786v0.403l-9.083,3.422c-0.002,0.001-0.004,0.003-0.006,0.003  c-0.047,0.018-0.092,0.041-0.134,0.07c-0.006,0.004-0.011,0.011-0.017,0.015c-0.017,0.013-0.031,0.027-0.046,0.041  c-0.03,0.026-0.057,0.054-0.081,0.085c-0.014,0.018-0.026,0.035-0.038,0.054c-0.021,0.034-0.038,0.069-0.052,0.106  c-0.007,0.019-0.016,0.036-0.021,0.056c-0.016,0.055-0.026,0.112-0.026,0.171C0.001,26.391,0,26.393,0,26.396c0,0,0,0,0,0.001  c0,0,0,0,0,0v26.851c0,0.271,0.167,0.513,0.419,0.609L33.527,66.53c0.005,0.002,0.012,0.001,0.018,0.003  c0.069,0.025,0.142,0.04,0.215,0.04c0.073,0,0.144-0.015,0.213-0.038c0.005-0.002,0.012-0.001,0.017-0.004l65.586-24.713  c0.254-0.096,0.423-0.339,0.423-0.61V14.361C100,14.36,100,14.359,100,14.358z M80.762,7.787c0.169-0.022,0.341-0.043,0.517-0.06  c0.007-0.001,0.014-0.001,0.021-0.002c0.178-0.018,0.358-0.033,0.544-0.044c0.001,0,0.001,0,0.002,0  c0.355-0.023,0.722-0.037,1.105-0.037c0.403,0,0.791,0.013,1.163,0.039c0.623,0.042,1.196,0.117,1.722,0.215  c0.036,0.007,0.073,0.014,0.109,0.021c0.415,0.081,0.798,0.177,1.146,0.284c0.034,0.011,0.069,0.022,0.104,0.033  c0.169,0.054,0.331,0.11,0.48,0.168c0.003,0.001,0.005,0.002,0.007,0.002c0.146,0.057,0.279,0.116,0.407,0.176  c0.03,0.015,0.062,0.029,0.093,0.044c0.124,0.061,0.242,0.123,0.348,0.186c0.003,0.002,0.006,0.004,0.01,0.006  c0.102,0.061,0.191,0.124,0.274,0.186c0.022,0.017,0.043,0.033,0.064,0.049c0.08,0.064,0.154,0.128,0.214,0.192  c0.169,0.179,0.256,0.354,0.256,0.517c0,0.864-2.491,2.119-6.396,2.119c-0.289,0-0.567-0.009-0.84-0.022  c-0.082-0.004-0.161-0.01-0.241-0.015c-0.195-0.012-0.387-0.027-0.573-0.045c-0.077-0.007-0.153-0.015-0.229-0.023  c-0.219-0.024-0.433-0.053-0.638-0.086c-0.027-0.004-0.057-0.007-0.083-0.012c-0.241-0.04-0.471-0.085-0.692-0.134  c-0.032-0.007-0.062-0.015-0.094-0.022c-0.189-0.044-0.37-0.09-0.543-0.14c-0.034-0.01-0.068-0.02-0.102-0.03  c-0.926-0.274-1.606-0.622-1.992-0.968c-0.016-0.014-0.029-0.027-0.043-0.04c-0.034-0.033-0.068-0.066-0.099-0.099  c-0.038-0.043-0.073-0.087-0.103-0.129c-0.013-0.019-0.022-0.038-0.033-0.056c-0.02-0.035-0.037-0.07-0.051-0.104  c-0.007-0.016-0.013-0.033-0.019-0.049c-0.014-0.049-0.024-0.098-0.024-0.146c0-0.054,0.01-0.109,0.028-0.166  c0.018-0.05,0.043-0.102,0.075-0.154c0.012-0.018,0.026-0.036,0.039-0.054c0.024-0.034,0.049-0.068,0.079-0.103  c0.019-0.022,0.043-0.045,0.065-0.067c0.029-0.03,0.06-0.06,0.094-0.09c0.029-0.025,0.061-0.05,0.093-0.076  c0.033-0.027,0.068-0.053,0.105-0.081c0.038-0.028,0.08-0.056,0.123-0.083c0.035-0.023,0.072-0.046,0.11-0.069  c0.05-0.031,0.103-0.061,0.158-0.091c0.033-0.019,0.069-0.037,0.104-0.055c0.066-0.034,0.132-0.067,0.203-0.1  c0.024-0.012,0.051-0.023,0.076-0.034c0.707-0.318,1.671-0.592,2.843-0.75C80.754,7.787,80.759,7.787,80.762,7.787z M89.347,11.725  v2.236c0,0.864-2.49,2.119-6.395,2.119v-2.892C85.366,13.187,87.873,12.682,89.347,11.725z M60.028,3.259  c0.017-0.05,0.043-0.102,0.074-0.154c0.012-0.018,0.027-0.036,0.04-0.054c0.024-0.034,0.048-0.068,0.079-0.103  c0.019-0.022,0.043-0.045,0.064-0.067c0.03-0.03,0.061-0.06,0.095-0.09c0.028-0.025,0.061-0.05,0.093-0.076  c0.033-0.027,0.068-0.053,0.105-0.081c0.038-0.028,0.08-0.056,0.123-0.083c0.035-0.023,0.072-0.046,0.109-0.069  c0.051-0.031,0.103-0.061,0.158-0.091c0.033-0.019,0.069-0.037,0.104-0.055c0.065-0.034,0.132-0.067,0.202-0.1  c0.024-0.012,0.052-0.023,0.077-0.034c0.707-0.318,1.671-0.592,2.843-0.75c0.004,0,0.008-0.001,0.012-0.001  c0.168-0.022,0.34-0.043,0.517-0.06c0.007-0.001,0.014-0.001,0.021-0.002c0.177-0.018,0.358-0.033,0.543-0.044  c0.001,0,0.001,0,0.002,0c0.355-0.023,0.723-0.037,1.105-0.037c0.403,0,0.791,0.013,1.164,0.039  c0.622,0.042,1.196,0.117,1.722,0.215c0.037,0.007,0.073,0.014,0.108,0.021c0.416,0.081,0.799,0.177,1.146,0.284  c0.035,0.011,0.07,0.022,0.105,0.033c0.168,0.054,0.33,0.11,0.48,0.168c0.002,0.001,0.004,0.002,0.006,0.003  c0.146,0.057,0.279,0.116,0.407,0.176c0.031,0.015,0.062,0.029,0.093,0.044c0.124,0.061,0.243,0.123,0.348,0.186  c0.003,0.002,0.006,0.004,0.009,0.006c0.103,0.061,0.192,0.124,0.275,0.186c0.021,0.017,0.044,0.033,0.064,0.049  c0.08,0.064,0.154,0.129,0.215,0.192c0.167,0.179,0.256,0.354,0.256,0.517c0,0.864-2.492,2.119-6.397,2.119  c-0.288,0-0.566-0.009-0.839-0.022c-0.082-0.003-0.161-0.009-0.241-0.015c-0.195-0.012-0.387-0.027-0.573-0.045  c-0.077-0.007-0.153-0.015-0.229-0.023c-0.219-0.025-0.432-0.054-0.637-0.086c-0.028-0.005-0.057-0.008-0.084-0.012  c-0.241-0.04-0.471-0.084-0.691-0.134c-0.032-0.007-0.062-0.015-0.094-0.022c-0.189-0.044-0.371-0.09-0.543-0.14  c-0.034-0.01-0.068-0.02-0.103-0.029c-0.926-0.274-1.605-0.622-1.991-0.968c-0.016-0.014-0.03-0.026-0.043-0.04  c-0.034-0.033-0.068-0.066-0.099-0.099c-0.039-0.043-0.073-0.087-0.103-0.129c-0.014-0.019-0.022-0.038-0.033-0.056  c-0.02-0.035-0.038-0.07-0.052-0.104c-0.006-0.016-0.012-0.032-0.018-0.048c-0.015-0.05-0.025-0.099-0.025-0.146  C59.999,3.371,60.009,3.316,60.028,3.259z M72.794,5.388v2.236c0,0.864-2.491,2.119-6.396,2.119V6.851  C68.812,6.85,71.319,6.345,72.794,5.388z M43.633,9.438c0.017-0.05,0.043-0.102,0.075-0.154c0.011-0.018,0.027-0.036,0.04-0.054  c0.024-0.034,0.048-0.068,0.079-0.103c0.019-0.022,0.043-0.045,0.064-0.067c0.03-0.03,0.061-0.061,0.095-0.09  c0.029-0.025,0.06-0.05,0.093-0.076c0.033-0.027,0.068-0.054,0.105-0.081c0.039-0.028,0.08-0.056,0.124-0.083  c0.035-0.023,0.072-0.046,0.109-0.069c0.051-0.031,0.103-0.062,0.159-0.091c0.033-0.019,0.069-0.037,0.104-0.055  c0.066-0.034,0.132-0.067,0.203-0.1c0.024-0.012,0.051-0.023,0.077-0.034c0.707-0.318,1.67-0.592,2.842-0.75  c0.004-0.001,0.008-0.001,0.012-0.002c0.168-0.022,0.34-0.042,0.517-0.06c0.007-0.001,0.014-0.001,0.021-0.002  c0.177-0.018,0.358-0.032,0.543-0.044c0.001,0,0.001,0,0.002,0C49.25,7.499,49.616,7.484,50,7.484c0.403,0,0.791,0.014,1.163,0.039  c0.623,0.042,1.197,0.117,1.722,0.215c0.037,0.007,0.073,0.014,0.108,0.021c0.416,0.081,0.799,0.178,1.146,0.284  c0.035,0.011,0.07,0.022,0.105,0.033c0.168,0.054,0.33,0.11,0.48,0.168c0.002,0,0.004,0.001,0.006,0.002  c0.146,0.057,0.279,0.116,0.407,0.176c0.031,0.015,0.062,0.03,0.093,0.045c0.124,0.061,0.242,0.123,0.348,0.186  c0.003,0.002,0.006,0.004,0.009,0.006c0.102,0.061,0.192,0.123,0.274,0.186c0.022,0.017,0.045,0.033,0.065,0.05  c0.08,0.064,0.154,0.128,0.215,0.192c0.167,0.179,0.256,0.354,0.256,0.517c0,0.864-2.492,2.119-6.397,2.119  c-0.289,0-0.567-0.009-0.839-0.022c-0.082-0.004-0.161-0.01-0.241-0.015c-0.195-0.012-0.387-0.027-0.573-0.045  c-0.077-0.008-0.153-0.015-0.229-0.023c-0.219-0.025-0.432-0.053-0.637-0.086c-0.028-0.004-0.057-0.007-0.083-0.012  c-0.241-0.04-0.471-0.084-0.692-0.133c-0.032-0.007-0.062-0.015-0.094-0.022c-0.189-0.044-0.37-0.091-0.542-0.14  c-0.034-0.01-0.068-0.02-0.102-0.03c-0.926-0.274-1.606-0.622-1.992-0.968c-0.016-0.014-0.03-0.027-0.043-0.04  c-0.034-0.033-0.068-0.066-0.098-0.099c-0.039-0.043-0.074-0.087-0.103-0.129c-0.013-0.019-0.022-0.038-0.033-0.057  c-0.02-0.035-0.038-0.069-0.051-0.104c-0.006-0.017-0.013-0.033-0.018-0.049c-0.014-0.049-0.025-0.099-0.025-0.146  C43.604,9.55,43.614,9.495,43.633,9.438z M56.397,11.566v2.236c0,0.864-2.491,2.119-6.396,2.119v-2.892  C52.416,13.028,54.923,12.523,56.397,11.566z M27.236,15.616c0.017-0.05,0.043-0.102,0.075-0.154  c0.012-0.018,0.027-0.036,0.04-0.054c0.024-0.034,0.048-0.068,0.079-0.103c0.019-0.022,0.043-0.045,0.065-0.067  c0.03-0.03,0.06-0.061,0.094-0.091c0.029-0.025,0.061-0.05,0.093-0.075c0.033-0.027,0.068-0.054,0.105-0.081  c0.039-0.028,0.08-0.056,0.123-0.084c0.035-0.023,0.072-0.046,0.11-0.069c0.05-0.03,0.103-0.061,0.158-0.091  c0.033-0.018,0.069-0.036,0.104-0.055c0.065-0.034,0.131-0.067,0.202-0.1c0.024-0.012,0.052-0.023,0.077-0.034  c0.707-0.318,1.671-0.592,2.843-0.75c0.003-0.001,0.008-0.001,0.012-0.002c0.168-0.022,0.34-0.043,0.517-0.06  c0.007-0.001,0.013-0.001,0.021-0.002c0.177-0.018,0.358-0.033,0.543-0.044c0.001,0,0.001,0,0.001,0  c0.355-0.023,0.723-0.038,1.106-0.038c0.403,0,0.791,0.014,1.163,0.039c0.623,0.042,1.197,0.117,1.722,0.215  c0.037,0.007,0.073,0.013,0.109,0.021c0.416,0.081,0.798,0.177,1.145,0.284c0.035,0.011,0.07,0.022,0.105,0.033  c0.168,0.054,0.33,0.109,0.48,0.168c0.002,0.001,0.003,0.002,0.006,0.003c0.145,0.057,0.279,0.116,0.407,0.176  c0.031,0.015,0.062,0.03,0.092,0.044c0.125,0.061,0.243,0.124,0.348,0.187c0.003,0.002,0.006,0.004,0.009,0.006  c0.102,0.062,0.191,0.124,0.274,0.186c0.022,0.017,0.044,0.033,0.065,0.049c0.08,0.064,0.154,0.129,0.215,0.193  c0.167,0.178,0.255,0.354,0.255,0.516c0,0.864-2.492,2.119-6.396,2.119c-0.289,0-0.567-0.009-0.839-0.022  c-0.082-0.003-0.161-0.009-0.241-0.014c-0.195-0.012-0.387-0.027-0.573-0.045c-0.077-0.008-0.154-0.015-0.229-0.023  c-0.218-0.025-0.432-0.054-0.637-0.086c-0.028-0.004-0.057-0.008-0.084-0.012c-0.241-0.04-0.47-0.084-0.691-0.134  c-0.033-0.007-0.062-0.015-0.094-0.022c-0.19-0.043-0.371-0.09-0.543-0.139c-0.034-0.01-0.068-0.02-0.102-0.03  c-0.926-0.274-1.605-0.622-1.992-0.968c-0.015-0.014-0.03-0.026-0.043-0.04c-0.034-0.033-0.068-0.065-0.098-0.099  c-0.039-0.043-0.074-0.086-0.103-0.129c-0.014-0.019-0.022-0.038-0.033-0.056c-0.02-0.035-0.038-0.07-0.052-0.104  c-0.006-0.016-0.012-0.032-0.018-0.048c-0.015-0.05-0.025-0.099-0.025-0.146C27.207,15.729,27.217,15.673,27.236,15.616z   M40.001,17.745v2.235c0,0.864-2.491,2.119-6.396,2.119v-2.892C36.021,19.207,38.527,18.702,40.001,17.745z M10.839,21.795  c0.017-0.05,0.043-0.102,0.075-0.154c0.011-0.018,0.027-0.036,0.04-0.054c0.024-0.034,0.049-0.068,0.079-0.103  c0.02-0.022,0.043-0.045,0.065-0.067c0.03-0.03,0.061-0.06,0.095-0.09c0.028-0.025,0.06-0.05,0.092-0.076  c0.034-0.027,0.068-0.053,0.106-0.081c0.039-0.028,0.08-0.056,0.123-0.083c0.035-0.023,0.073-0.046,0.11-0.069  c0.05-0.031,0.103-0.061,0.158-0.091c0.034-0.019,0.069-0.037,0.104-0.055c0.065-0.034,0.131-0.067,0.202-0.1  c0.024-0.012,0.051-0.023,0.077-0.034c0.707-0.318,1.67-0.592,2.843-0.75c0.004-0.001,0.008-0.001,0.012-0.001  c0.168-0.022,0.34-0.043,0.517-0.06c0.007-0.001,0.013-0.001,0.021-0.002c0.177-0.018,0.358-0.032,0.543-0.044  c0.001,0,0.001,0,0.002,0c0.355-0.023,0.722-0.037,1.105-0.037c0.403,0,0.791,0.013,1.164,0.039  c0.623,0.042,1.196,0.117,1.722,0.215c0.037,0.007,0.073,0.014,0.109,0.021c0.416,0.081,0.798,0.177,1.146,0.284  c0.035,0.011,0.07,0.022,0.105,0.033c0.168,0.054,0.331,0.11,0.48,0.168c0.002,0.001,0.004,0.001,0.006,0.002  c0.145,0.057,0.279,0.116,0.407,0.176c0.032,0.015,0.062,0.029,0.093,0.044c0.124,0.061,0.243,0.123,0.348,0.186  c0.002,0.002,0.005,0.004,0.009,0.006c0.102,0.061,0.192,0.123,0.274,0.186c0.022,0.017,0.044,0.033,0.065,0.05  c0.08,0.064,0.155,0.128,0.215,0.192c0.167,0.179,0.256,0.354,0.256,0.517c0,0.864-2.492,2.119-6.397,2.119  c-0.289,0-0.567-0.009-0.839-0.022c-0.082-0.004-0.161-0.01-0.241-0.015c-0.195-0.012-0.387-0.027-0.573-0.045  c-0.078-0.007-0.154-0.015-0.229-0.023c-0.219-0.024-0.432-0.053-0.637-0.086c-0.028-0.004-0.057-0.007-0.083-0.012  c-0.241-0.04-0.471-0.085-0.692-0.134c-0.032-0.007-0.062-0.015-0.094-0.022c-0.19-0.044-0.371-0.09-0.543-0.14  c-0.034-0.01-0.068-0.02-0.102-0.03c-0.926-0.274-1.606-0.622-1.992-0.968c-0.015-0.014-0.029-0.027-0.042-0.04  c-0.035-0.033-0.069-0.066-0.098-0.099c-0.039-0.043-0.074-0.087-0.103-0.129c-0.013-0.019-0.022-0.038-0.033-0.056  c-0.02-0.035-0.038-0.07-0.051-0.104c-0.007-0.016-0.013-0.032-0.018-0.049c-0.015-0.049-0.025-0.099-0.025-0.146  C10.811,21.907,10.821,21.852,10.839,21.795z M23.605,23.923v2.236c0,0.864-2.491,2.119-6.396,2.119v-2.892  C19.624,25.385,22.13,24.881,23.605,23.923z M17.207,29.584c3.735,0,7.703-1.2,7.703-3.425v-4.198c0-0.139-0.015-0.274-0.045-0.405  c-0.061-0.262-0.178-0.507-0.346-0.737c-0.083-0.115-0.18-0.225-0.288-0.332c-0.077-0.076-0.16-0.149-0.249-0.222  c-0.033-0.027-0.071-0.053-0.106-0.08c-0.057-0.043-0.113-0.086-0.173-0.126c-0.048-0.034-0.1-0.065-0.15-0.097  c-0.051-0.033-0.102-0.064-0.155-0.096c-0.061-0.036-0.125-0.07-0.188-0.104c-0.046-0.024-0.093-0.049-0.141-0.074  c-0.073-0.037-0.148-0.072-0.225-0.107c-0.041-0.019-0.082-0.037-0.123-0.055c-0.086-0.038-0.174-0.075-0.264-0.11  c-0.033-0.013-0.066-0.025-0.1-0.039c-0.1-0.038-0.201-0.075-0.304-0.111c-0.023-0.008-0.047-0.015-0.07-0.023  c-0.088-0.029-0.178-0.058-0.269-0.085l4.186-1.577v0v2.399c0,2.225,3.969,3.425,7.703,3.425c3.734,0,7.703-1.201,7.703-3.425  v-4.198c0-0.139-0.016-0.274-0.045-0.405c-0.061-0.262-0.178-0.507-0.346-0.737c-0.083-0.115-0.18-0.225-0.288-0.332  c-0.076-0.076-0.16-0.149-0.248-0.221c-0.033-0.027-0.071-0.053-0.106-0.08c-0.057-0.043-0.113-0.086-0.173-0.127  c-0.049-0.033-0.1-0.065-0.15-0.097c-0.051-0.032-0.102-0.064-0.156-0.096c-0.06-0.036-0.124-0.07-0.188-0.104  c-0.046-0.025-0.093-0.049-0.14-0.074c-0.073-0.037-0.148-0.072-0.225-0.107c-0.041-0.019-0.082-0.038-0.123-0.056  c-0.086-0.038-0.174-0.075-0.264-0.11c-0.033-0.013-0.067-0.026-0.1-0.039c-0.1-0.038-0.201-0.075-0.304-0.11  c-0.023-0.008-0.046-0.016-0.07-0.023c-0.088-0.029-0.178-0.058-0.269-0.085l4.186-1.578v0.001v2.399  c0,2.224,3.969,3.425,7.701,3.425c3.735,0,7.703-1.201,7.703-3.425V9.604c0-0.139-0.015-0.274-0.045-0.406  c-0.061-0.262-0.178-0.507-0.346-0.736c-0.083-0.115-0.18-0.225-0.287-0.332c-0.077-0.076-0.16-0.149-0.249-0.221  c-0.033-0.027-0.07-0.053-0.105-0.08c-0.057-0.043-0.112-0.086-0.173-0.127c-0.049-0.033-0.1-0.064-0.15-0.097  c-0.052-0.032-0.102-0.064-0.155-0.096c-0.061-0.036-0.125-0.07-0.188-0.104c-0.046-0.024-0.093-0.049-0.141-0.074  c-0.072-0.037-0.148-0.072-0.225-0.107c-0.04-0.019-0.082-0.037-0.123-0.055c-0.087-0.038-0.174-0.075-0.264-0.11  c-0.033-0.013-0.066-0.026-0.1-0.039c-0.101-0.038-0.201-0.075-0.305-0.111c-0.023-0.008-0.047-0.015-0.07-0.023  c-0.087-0.029-0.178-0.058-0.268-0.085l4.186-1.577v0v2.399c0,2.225,3.968,3.425,7.701,3.425c3.735,0,7.703-1.201,7.703-3.425V5.391  L78.303,7c-1.388,0.445-2.468,1.108-2.878,1.976c-0.115,0.246-0.177,0.508-0.177,0.786v0.403v1.396v2.399  c0,2.225,3.969,3.425,7.702,3.425c3.734,0,7.703-1.201,7.703-3.425v-2.233l6.854,2.624L33.763,38.372L3.239,26.688l-0.748-0.286  l7.014-2.643v0v2.399C9.505,28.384,13.474,29.584,17.207,29.584z M98.694,40.756L34.414,64.977V39.522l34.698-13.075L98.694,15.3  V40.756z"/>
</svg>