<svg xmlns="http://www.w3.org/2000/svg" xmlns:xlink="http://www.w3.org/1999/xlink" version="1.1" id="Layer_1" x="0px" y="0px" width="100px" height="100px" viewBox="0 0 100 100" enable-background="new 0 0 100 100" xml:space="preserve" xmlns:xml="http://www.w3.org/XML/1998/namespace">
<g>
	<path d="M25.731,32.166c0-2.246-2.797-4.065-6.249-4.065h-0.111v8.13h0.111C22.934,36.231,25.731,34.412,25.731,32.166z"/>
	<circle cx="55.229" cy="54.064" r="4.565"/>
	<path d="M50.8,46.164h-5.204h-0.14h-5.204c-0.442,0-0.442,0.665,0,0.665h5.204h0.14H50.8C51.243,46.829,51.243,46.164,50.8,46.164z   "/>
	<path d="M49.913,47.48l-4.316,0.001h-0.14l-4.318-0.001c-0.443,0-0.443,0.665,0,0.665h4.318h0.14h4.316   C50.357,48.145,50.357,47.48,49.913,47.48z"/>
	<path d="M49.348,48.797h-3.752h-0.14h-3.752c-0.443,0-0.443,0.664,0,0.664h3.752h0.14h3.752   C49.791,49.461,49.791,48.797,49.348,48.797z"/>
	<path d="M49.266,51.43h-3.332c0.47,0.152,0.903,0.379,1.296,0.664h2.036C49.71,52.094,49.71,51.43,49.266,51.43z"/>
	<path d="M51.014,40.696c0-0.384-0.322-0.695-0.721-0.695h-9.459c-0.399,0-0.722,0.311-0.722,0.695v2.312h10.902V40.696z"/>
	<path d="M83.551,39.861c-3.162,0-6.113,0.909-8.605,2.481c-0.621-1.419-1.949-2.63-3.707-3.442l-0.26-0.693l5.641,0.002h12.691   c0.002-0.061,0.004-0.122,0.004-0.184c0-3.975-5.684-7.197-12.694-7.197v6.031H62.818c0.32-1.905-2.576-5.449-20.298-6.584   c-8.467-0.541-10.736-0.706-11.421,0.762l-0.333,0.632c-0.113-1.344-2.199-1.904-3.162-0.602l-4.797,9.193   c-1.961-0.789-4.103-1.225-6.346-1.225c-3.103,0-6.012,0.832-8.514,2.286c0.269,0.169,0.568,0.32,0.892,0.448   c-5.079,2.723-8.535,8.083-8.535,14.249c0,8.924,7.234,16.158,16.157,16.158c8.142,0,14.878-6.023,15.994-13.857   c0.216,0.306,0.456,0.566,0.711,0.773c0.182-0.996,0.277-2.023,0.277-3.074c0-5.949-3.06-11.185-7.692-14.218l2.837-5.438   c-0.025,0.987,0.595,1.767,1.639,1.811l3.509,7.312c0.018,0.037,0.037,0.072,0.057,0.105c0.289-0.692,0.764-1.293,1.353-1.775   l-2.7-5.625l30.328,0.016c-3.547,0.897-6.078,3.227-6.078,5.96c0,2.853,2.76,5.267,6.553,6.07l-4.252,9.29l-16.133,0.664   c-0.702-0.069-1.293-0.621-1.589-1.235c-1.303-2.845-4.493-9.726-4.755-10.292c-0.055-0.159-0.084-0.347-0.084-0.578   c0-0.865,0.597-1.745,1.708-2.249l-0.822-1.815c-1.626,0.736-2.879,2.219-2.879,4.064c0,0.419,0.069,0.901,0.238,1.346   c0,0,3.44,7.425,4.794,10.38c0.62,1.287,1.871,2.265,3.31,2.369l26.304,1.047c2.65,5.303,8.133,8.948,14.464,8.948   c8.925,0,16.156-7.233,16.156-16.157C99.707,47.095,92.475,39.861,83.551,39.861z M16.459,42.382c1.686,0,3.3,0.306,4.79,0.865   l-3.129,5.995c-0.532-0.129-1.088-0.198-1.66-0.198c-0.733,0-1.438,0.113-2.101,0.322L12.2,43.06   C13.541,42.62,14.972,42.382,16.459,42.382z M16.46,69.661c-7.533,0-13.639-6.108-13.639-13.642c0-5.812,3.634-10.771,8.753-12.736   l2.162,6.313c-2.5,1.06-4.253,3.536-4.253,6.423c0,3.854,3.123,6.979,6.977,6.979c3.675,0,6.686-2.842,6.957-6.447h6.671   C29.811,63.838,23.815,69.66,16.46,69.661z M30.098,55.885h-6.663c-0.039-2.033-0.947-3.854-2.369-5.104l3.127-5.996   C27.726,47.222,30.053,51.281,30.098,55.885z M33.582,36.564l-3.064-2.639c-0.26-0.225-0.367-0.493-0.363-0.751l-0.941-0.811   c-0.672-0.578,0.196-1.583,0.867-1.006l0.941,0.809c0.255-0.042,0.536,0.023,0.797,0.249l3.064,2.638   C35.89,35.921,34.589,37.431,33.582,36.564z M61.232,59.436l0.113-0.244c0.59-0.056,3.081-0.25,6.271-0.496   c0.026,0.158,0.056,0.316,0.086,0.476L61.232,59.436z M67.395,56.02c0,0.232,0.006,0.461,0.018,0.691   c-2.039,0.154-3.865,0.299-5.12,0.41l3.028-6.615c0.229,0.01,0.462,0.016,0.695,0.016c0.836,0,1.648-0.072,2.42-0.213   C67.764,52.082,67.395,54.008,67.395,56.02z M66.016,49.126c-2.326,0-4.227-0.599-5.582-1.472c0.108-0.006,0.164-0.065,0.172-0.178   c0.016-0.203-0.273-0.101-0.254-0.391c0.008-0.107,0.116-0.202,0.277-0.202c0.203,0,0.508,0.136,0.969,0.34   c0.51,0.227,1.043,0.49,1.805,0.49c1.279,0,2.078-0.753,2.148-1.763c0.047-0.677-0.178-1.084-0.433-1.084   c-0.06,0-0.122,0.051-0.126,0.119c-0.012,0.144,0.266,0.169,0.236,0.602c-0.021,0.296-0.258,0.533-0.57,0.533   c-0.483,0-1.229-0.618-2.246-0.618c-0.721,0-1.15,0.213-1.521,0.678c-0.205,0.254-0.244,0.44-0.396,0.44   c-0.06,0-0.08-0.05-0.073-0.144c0.023-0.364,0.695-1.095,1.719-1.288c0.9-0.169,1.691-0.213,2.313-0.509   c0.604-0.288,0.971-0.788,1.013-1.398c0.074-1.051-0.857-1.882-2.41-1.882c-1.517,0-2.574,0.84-2.65,1.932   c-0.047,0.654,0.334,1.137,0.979,1.137c0.559,0,1.038-0.433,1.09-1.153c0.035-0.509-0.127-0.856-0.502-1.06   c0.024,0.127,0.033,0.237,0.026,0.339c-0.022,0.331-0.188,0.508-0.435,0.508c-0.229,0-0.361-0.161-0.342-0.432   c0.033-0.491,0.459-0.864,0.939-0.864c0.695,0,1.074,0.5,1.014,1.39c-0.033,0.475-0.251,0.924-0.566,1.212   c-0.325,0.288-0.752,0.44-1.176,0.679c-0.854,0.465-1.326,1.153-1.379,1.906c-0.014,0.177,0.012,0.332,0.063,0.446   c-1.306-0.943-2.021-2.151-2.021-3.271c0-2.293,3.01-4.957,7.918-4.957c2.773,0,4.942,0.85,6.271,2.001   c-0.051,0-0.121,0.042-0.148,0.084l-0.15,0.229h-3.704c-0.146,0-0.255,0.008-0.349,0.008c-0.222,0-0.312-0.026-0.324-0.195   c-0.01-0.101-0.006-0.161-0.116-0.161c-0.052,0-0.078,0.025-0.101,0.085l-0.767,2.109c-0.01,0.035-0.021,0.069-0.022,0.094   c-0.004,0.051,0.027,0.076,0.088,0.076c0.137,0,0.263-0.466,1.076-0.466h3.229c-0.525,0.602-1.355,0.958-2.178,1.555   c-1.274,0.907-1.938,1.924-1.994,2.711c-0.01,0.162,0.033,0.247,0.178,0.247h2.84c0.119,0,0.19-0.044,0.195-0.127   c0.005-0.076-0.232-0.45-0.176-1.255c0.1-1.398,0.998-2.5,1.93-3.941l0.561-0.865c0.019-0.025,0.03-0.059,0.028-0.13   c1.007,0.877,1.554,1.921,1.554,2.899C73.934,46.463,70.923,49.126,66.016,49.126z M69.914,56.02c0-2.494,0.669-4.834,1.84-6.846   l0.121-0.065l0.116,0.307l0.524,1.4l0.463-0.174l1.869,4.986c0.084,0.227,0.215,0.391,0.368,0.496l-2.924,0.215l-2.371,0.182   C69.916,56.354,69.914,56.188,69.914,56.02z M83.55,69.66c-4.836,0-9.084-2.518-11.507-6.312l6.391,0.254v-4.875l-8.182,0.338   c-0.043-0.186-0.081-0.373-0.115-0.561l2.305-0.174c2.148-0.158,4.291-0.316,6.115-0.453c0.756,2.027,2.705,3.471,4.993,3.471   c2.942,0,5.327-2.385,5.327-5.328c0-2.939-2.385-5.324-5.327-5.324c-2.901,0-5.262,2.32-5.323,5.209l-1.785,0.133   c0.289-0.239,0.447-0.633,0.271-1.104l-1.871-4.991l0.475-0.177l-0.524-1.399l-0.485-1.294c0.428-0.567,0.735-1.185,0.897-1.836   c2.308-1.789,5.202-2.854,8.348-2.855c7.533,0,13.64,6.107,13.64,13.64C97.189,63.553,91.082,69.66,83.55,69.66z"/>
	<path d="M40.323,44.196h5.134h0.14h5.133c0.44,0,0.44-0.665,0-0.665h-5.133h-0.14h-5.134C39.88,43.531,39.88,44.195,40.323,44.196z   "/>
	<path d="M39.84,45.513h5.617h0.14h5.616c0.444,0,0.444-0.665,0-0.665h-5.616h-0.14H39.84C39.397,44.848,39.397,45.512,39.84,45.513   z"/>
	<path d="M45.456,50.777h0.14h3.329c0.443,0,0.443-0.665,0-0.665h-3.329h-0.14h-3.329c-0.442,0-0.442,0.665,0,0.665H45.456z"/>
	<circle cx="44.551" cy="55.829" r="3.39"/>
	<path d="M41.785,52.094h0.086c0.393-0.285,0.826-0.512,1.296-0.664h-1.383C41.342,51.43,41.342,52.094,41.785,52.094z"/>
</g>
</svg>