<svg xmlns="http://www.w3.org/2000/svg" xmlns:xlink="http://www.w3.org/1999/xlink" version="1.1" x="0px" y="0px" width="100px" height="100px" viewBox="0 0 100 100" enable-background="new 0 0 100 100" xml:space="preserve" xmlns:xml="http://www.w3.org/XML/1998/namespace">
<g id="Captions">
</g>
<g id="Your_Icon">
	<path fill-rule="evenodd" clip-rule="evenodd" d="M77.18,70.392c0.236-0.237,0.487-0.487,0.487-0.725   c5.096,4.853,9.955,9.948,14.808,14.801c0.968,0.731,1.942,1.212,3.146,1.212c2.437,0,4.379-1.936,4.379-4.365   c0-0.968-0.487-2.18-1.225-2.917c-0.961-0.968-1.936-1.936-2.903-2.91C98.538,73.302,100,70.154,100,66.75   c0-6.314-4.859-11.16-11.167-11.16c-3.397,0-6.551,1.449-8.737,4.122c-2.916-2.91-5.826-5.82-8.5-8.737   c-4.858-3.885-9.461-8.013-14.076-12.135c13.353-8.257,26.461-16.27,39.808-24.52C80.577,17.718,64.32,24.275,50,33.744   C35.923,24.275,19.417,17.718,2.66,14.32c13.359,8.25,26.705,16.263,40.058,24.52c-4.859,4.122-9.468,8.25-14.077,12.135   c-2.923,2.917-5.826,5.827-8.743,8.737c-2.18-2.673-5.333-4.122-8.73-4.122C5.096,55.59,0,60.436,0,66.75   c0,3.404,1.699,6.552,4.358,8.737c-0.961,0.975-1.936,1.942-2.903,2.91C0.487,79.135,0,80.347,0,81.314   c0,2.43,1.942,4.365,4.358,4.365c1.225,0,2.437-0.48,3.161-1.212c4.858-4.853,9.955-9.948,14.801-14.801   c0.25,0.237,0.494,0.487,0.737,0.725c0.487,0.487,0.961,0.724,1.699,0.724c1.698,0,2.659-1.211,2.659-2.666   c0-0.731-0.236-1.455-0.717-1.942c-0.244-0.237-0.244-0.487-0.487-0.725c0.968-0.975,1.942-1.942,3.153-3.16   C36.16,56.558,43.205,50.494,50,44.424c7.038,6.07,13.833,12.134,20.872,18.198c0.974,1.218,1.942,2.186,3.146,3.16   c-0.236,0.237-0.474,0.487-0.717,0.725c-0.487,0.487-0.731,1.211-0.731,1.942c0,1.455,1.212,2.666,2.673,2.666   C75.968,71.115,76.699,70.879,77.18,70.392 M83.98,63.597c2.91,2.91,5.814,5.82,8.737,8.737c1.212-1.219,1.942-2.667,1.942-4.366   c0-3.41-2.917-6.313-6.314-6.313C86.647,61.654,85.192,62.385,83.98,63.597 M16.263,63.597c-1.225-1.212-2.923-1.942-4.622-1.942   c-3.391,0-6.058,2.903-6.058,6.313c0,1.699,0.475,3.147,1.699,4.366C10.192,69.417,13.34,66.507,16.263,63.597"/>
</g>
</svg>